<?xml version="1.0" standalone="no"?>
<!DOCTYPE svg PUBLIC "-//W3C//DTD SVG 20010904//EN"
 "http://www.w3.org/TR/2001/REC-SVG-20010904/DTD/svg10.dtd">
<svg version="1.0" xmlns="http://www.w3.org/2000/svg"
 width="100.000000pt" height="100.000000pt" viewBox="0 0 100.000000 100.000000"
 preserveAspectRatio="xMidYMid meet">
<metadata>
Created by potrace 1.11, written by Peter Selinger 2001-2013
</metadata>
<g transform="translate(0.000000,100.000000) scale(0.100000,-0.100000)"
fill="#000000" stroke="none">
<path d="M0 500 l0 -500 500 0 500 0 0 500 0 500 -500 0 -500 0 0 -500z m582
386 c24 -8 57 -16 73 -18 20 -2 33 -11 40 -25 5 -13 16 -23 24 -23 8 0 23 -7
33 -17 15 -14 18 -32 18 -124 0 -100 -2 -109 -22 -123 -12 -9 -40 -16 -62 -16
-23 0 -53 -9 -75 -22 -29 -19 -51 -23 -111 -23 -60 0 -83 5 -113 23 -21 12
-55 22 -75 22 -21 0 -48 7 -60 16 -20 14 -22 23 -22 121 0 112 11 143 50 143
10 0 20 7 24 15 3 8 13 15 23 15 10 0 40 11 67 25 57 29 123 33 188 11z m-330
-433 c24 -21 23 -68 -2 -93 -41 -41 -110 -13 -110 45 0 18 7 41 16 49 20 21
73 20 96 -1z m138 7 c0 -5 -4 -10 -10 -10 -5 0 -10 5 -10 10 0 6 5 10 10 10 6
0 10 -4 10 -10z m-40 -31 c0 -5 -6 -9 -14 -9 -10 0 -16 -13 -18 -37 -5 -58
-28 -54 -28 5 0 48 1 49 30 50 17 0 30 -4 30 -9z m40 -39 c0 -27 -4 -50 -10
-50 -5 0 -10 23 -10 50 0 28 5 50 10 50 6 0 10 -22 10 -50z m108 37 c18 -14
16 -87 -3 -87 -10 0 -15 10 -15 34 0 38 -17 57 -31 35 -5 -8 -9 -26 -9 -41 0
-16 -4 -28 -10 -28 -5 0 -10 22 -10 48 0 48 0 49 33 49 17 0 38 -4 45 -10z
m116 -3 c42 -42 -4 -101 -59 -76 -44 20 -24 92 25 92 10 0 26 -7 34 -16z m117
0 c11 -13 9 -15 -17 -12 -25 3 -29 -1 -32 -25 -3 -27 -2 -29 27 -22 39 8 43
-12 4 -21 -34 -9 -57 6 -61 42 -6 46 50 73 79 38z m109 -4 c24 -24 24 -29 4
-58 -27 -39 -94 -19 -94 28 0 20 35 50 57 50 7 0 22 -9 33 -20z m-122 -117
c-120 -2 -316 -2 -435 0 -120 1 -22 2 217 2 239 0 337 -1 218 -2z m-512 -62
c2 -19 1 -19 -3 -1 -6 27 -31 25 -36 -2 -3 -17 -5 -14 -6 9 -1 30 1 32 22 24
13 -5 23 -17 23 -30z m630 0 c2 -19 1 -19 -3 -1 -6 27 -31 25 -36 -2 -3 -17
-5 -14 -6 9 -1 30 1 32 22 24 13 -5 23 -17 23 -30z m-722 20 c3 -5 -2 -8 -12
-7 -9 0 -17 -6 -17 -14 0 -8 8 -14 17 -14 23 2 14 -12 -12 -19 -16 -4 -20 0
-20 22 0 15 3 31 7 34 9 10 31 9 37 -2z m180 -8 c4 -9 0 -23 -9 -32 -13 -14
-17 -14 -31 1 -9 9 -14 24 -11 32 8 21 43 20 51 -1z m139 10 c3 -5 -5 -8 -18
-8 -13 0 -21 3 -18 8 2 4 10 7 18 7 8 0 16 -3 18 -7z m87 -2 c0 -5 -8 -8 -17
-7 -10 0 -18 -6 -18 -14 0 -8 8 -14 18 -14 9 1 17 -4 17 -10 0 -6 -9 -12 -20
-12 -10 0 -17 2 -15 5 3 2 0 10 -5 16 -15 18 -1 45 21 45 10 0 19 -4 19 -9z
m63 -3 c-6 -7 -13 -20 -16 -28 -3 -9 -6 -3 -6 13 -1 19 4 27 15 27 12 0 14 -4
7 -12z m85 -14 c3 -24 -25 -41 -41 -25 -12 12 0 31 21 32 14 0 13 2 -3 10
l-20 9 20 -3 c12 -1 21 -11 23 -23z m82 17 c0 -5 -8 -8 -17 -7 -10 0 -18 -6
-18 -14 0 -8 8 -14 17 -14 23 2 14 -12 -12 -19 -16 -4 -20 0 -20 22 0 15 3 31
7 34 9 10 43 8 43 -2z m-315 -40 c-8 -13 -32 -14 -39 -2 -4 5 3 7 14 4 12 -3
20 0 20 8 0 7 3 10 6 6 3 -3 3 -10 -1 -16z m468 -1 c-3 -11 -9 -20 -15 -20 -5
0 -4 9 2 20 6 11 12 20 14 20 2 0 2 -9 -1 -20z"/>
<path d="M460 881 c-98 -20 -160 -92 -160 -186 0 -107 84 -188 196 -188 110 0
193 73 202 176 9 123 -111 223 -238 198z m136 -29 c53 -28 114 -135 90 -159
-6 -6 -10 5 -21 52 -10 46 -76 102 -130 110 -24 4 -43 11 -40 15 6 9 73 -2
101 -18z m-88 -37 c12 -19 22 -37 22 -40 0 -3 -38 -5 -85 -5 -47 0 -85 4 -85
8 0 20 82 71 115 71 6 1 20 -15 33 -34z m55 21 c18 -7 40 -23 51 -34 18 -21
18 -22 -4 -57 -12 -19 -23 -35 -25 -35 -2 0 -16 21 -31 48 -15 26 -34 57 -42
70 -13 20 -13 22 2 22 9 0 31 -6 49 -14z m95 -156 l-3 -45 -49 -3 c-56 -4 -56
-4 0 83 35 56 38 58 46 35 5 -13 8 -45 6 -70z m-218 75 c0 -3 -19 -35 -42 -71
-36 -57 -42 -64 -51 -48 -12 21 -14 95 -3 112 7 12 96 18 96 7z m-95 -132 c18
-42 75 -84 124 -90 23 -3 38 -9 36 -13 -3 -5 -13 -7 -23 -5 -9 2 -29 6 -44 10
-34 7 -94 58 -114 96 -7 15 -14 41 -13 56 l0 28 11 -25 c5 -14 16 -39 23 -57z
m139 -81 c-22 -5 -108 41 -112 59 -1 8 7 29 19 48 l21 34 43 -69 c34 -54 41
-70 29 -72z m135 52 c-22 -25 -76 -54 -98 -54 -8 0 -51 64 -51 76 0 2 39 4 87
4 l86 0 -24 -26z"/>
<path d="M183 443 c-19 -7 -16 -60 4 -72 24 -13 53 4 53 32 0 37 -24 54 -57
40z"/>
<path d="M564 406 c-8 -22 3 -49 19 -43 6 2 12 14 12 27 0 27 -22 39 -31 16z"/>
<path d="M784 405 c-8 -21 3 -45 20 -45 20 0 29 16 21 40 -7 23 -33 27 -41 5z"/>
<path d="M252 243 c4 -21 33 -25 33 -3 0 8 -8 16 -18 18 -14 3 -18 -1 -15 -15z"/>
<path d="M630 230 c0 -5 4 -10 9 -10 6 0 13 5 16 10 3 6 -1 10 -9 10 -9 0 -16
-4 -16 -10z"/>
</g>
</svg>
